<?xml version="1.0" encoding="utf-8"?>
<!-- Generator: Adobe Illustrator 15.0.0, SVG Export Plug-In . SVG Version: 6.00 Build 0)  -->
<!DOCTYPE svg PUBLIC "-//W3C//DTD SVG 1.1//EN" "http://www.w3.org/Graphics/SVG/1.1/DTD/svg11.dtd">
<svg version="1.1" id="图层_1" xmlns="http://www.w3.org/2000/svg" xmlns:xlink="http://www.w3.org/1999/xlink" x="0px" y="0px"
	 width="20px" height="20px" viewBox="-2.5 -2.5 20 20" enable-background="new -2.5 -2.5 20 20" xml:space="preserve">
<title>Combined Shape</title>
<desc>Created with Sketch.</desc>
<g id="Page-1">
	<g id="列表填写页1" transform="translate(-646.000000, -1484.000000)">
		<g id="Group-32" transform="translate(426.000000, 1344.000000)">
			<path id="Combined-Shape" d="M227.5,138.61c-4.889,0-8.889,4-8.889,8.889c0,4.89,4,8.891,8.889,8.891
				c4.888,0,8.888-4.001,8.888-8.891C236.389,142.61,232.444,138.61,227.5,138.61L227.5,138.61z M227.5,157.5c-5.5,0-10-4.499-10-10
				s4.5-10,10-10s9.999,4.5,9.999,10C237.555,153.056,233.056,157.5,227.5,157.5z M226.931,150.272
				c-0.005-0.185-0.008-0.322-0.008-0.415c0-0.542,0.078-1.01,0.23-1.404c0.113-0.297,0.294-0.595,0.544-0.896
				c0.185-0.221,0.516-0.542,0.994-0.963c0.479-0.421,0.788-0.758,0.931-1.009c0.146-0.251,0.215-0.524,0.215-0.821
				c0-0.537-0.209-1.01-0.628-1.416c-0.418-0.407-0.933-0.61-1.543-0.61c-0.589,0-1.079,0.185-1.473,0.553
				c-0.393,0.369-0.653,0.944-0.774,1.726l-1.42-0.168c0.128-1.049,0.507-1.852,1.14-2.41c0.631-0.559,1.468-0.835,2.505-0.835
				c1.099,0,1.979,0.298,2.632,0.897c0.655,0.599,0.981,1.321,0.981,2.171c0,0.491-0.114,0.944-0.344,1.358
				c-0.23,0.414-0.68,0.918-1.35,1.512c-0.45,0.399-0.745,0.692-0.884,0.883c-0.138,0.188-0.24,0.407-0.307,0.652
				c-0.065,0.246-0.104,0.645-0.116,1.197L226.931,150.272L226.931,150.272z M226.846,153.041v-1.572h1.573v1.572H226.846z"/>
		</g>
	</g>
</g>
</svg>
